<?xml version="1.0"?>
<svg width="15" height="16" xmlns="http://www.w3.org/2000/svg" xmlns:svg="http://www.w3.org/2000/svg">
 <g class="layer">
  <title>Layer 1</title>
  <path d="m13.3929,0.83398l-11.78576,0c-0.88761,0 -1.60714,0.71853 -1.60714,1.6049l0,11.76922c0,0.8864 0.71953,1.6049 1.60714,1.6049l11.78576,0c0.8876,0 1.6071,-0.7185 1.6071,-1.6049l0,-11.76922c0,-0.88637 -0.7195,-1.6049 -1.6071,-1.6049zm0,13.37412l-11.78576,0l0,-11.76922l11.78576,0l0,11.76922zm-1.2008,-8.08211l-5.7787,5.72421c-0.15753,0.1561 -0.41193,0.1551 -0.56819,-0.0022l-3.03954,-3.0599c-0.15626,-0.15731 -0.15526,-0.41135 0.00231,-0.56743l0.76068,-0.75349c0.15753,-0.15605 0.41193,-0.15504 0.56819,0.0023l2.00197,2.01538l4.73278,-4.68816c0.1575,-0.15604 0.4119,-0.15504 0.5682,0.00227l0.7545,0.75959c0.1563,0.15734 0.1553,0.41138 -0.0022,0.56743z" fill="#333333" id="svg_1"/>
  <rect fill="#ffffff" height="5.1875" id="svg_7" stroke="#ffffff" stroke-width="5" width="5.53125" x="4.75" y="5.328125"/>
 </g>
</svg>