<svg width="15" height="16" xmlns="http://www.w3.org/2000/svg">

 <g>
  <title>background</title>
  <rect fill="none" id="canvas_background" height="402" width="582" y="-1" x="-1"/>
 </g>
 <g>
  <title>Layer 1</title>
  <path id="svg_1" fill="#333333" d="m13.3929,0.83398l-11.78576,0c-0.88761,0 -1.60714,0.71853 -1.60714,1.6049l0,11.76922c0,0.8864 0.71953,1.6049 1.60714,1.6049l11.78576,0c0.8876,0 1.6071,-0.7185 1.6071,-1.6049l0,-11.76922c0,-0.88637 -0.7195,-1.6049 -1.6071,-1.6049zm0,13.37412l-11.78576,0l0,-11.76922l11.78576,0l0,11.76922zm-1.2008,-8.08211l-5.7787,5.72421c-0.15753,0.1561 -0.41193,0.1551 -0.56819,-0.0022l-3.03954,-3.0599c-0.15626,-0.15731 -0.15526,-0.41135 0.00231,-0.56743l0.76068,-0.75349c0.15753,-0.15605 0.41193,-0.15504 0.56819,0.0023l2.00197,2.01538l4.73278,-4.68816c0.1575,-0.15604 0.4119,-0.15504 0.5682,0.00227l0.7545,0.75959c0.1563,0.15734 0.1553,0.41138 -0.0022,0.56743z"/>
  <rect stroke-opacity="0" stroke="#000000" id="svg_8" height="5.006586" width="21.343868" y="-1.560276" x="-1.525034" fill-opacity="0" stroke-width="1.5" fill="#000000"/>
  <rect id="svg_13" height="2.89855" width="18.57707" y="-0.506258" x="-1.788539" stroke-width="1.5" stroke="#ffffff" fill="#ffffff"/>
  <rect id="svg_15" height="5.7971" width="24.637675" y="13.32773" x="-2.579052" stroke-width="1.5" stroke="#ffffff" fill="#ffffff"/>
  <rect id="svg_16" height="0" width="0.395257" y="5.949603" x="26.801704" stroke-width="1.5" stroke="#ffffff" fill="#ffffff"/>
  <rect id="svg_17" height="0.263505" width="0.790514" y="13.986492" x="12.835964" stroke-width="1.5" stroke="#ffffff" fill="#ffffff"/>
  <rect id="svg_18" height="20.948611" width="1.449275" y="-4.063569" x="-0.339264" stroke-width="1.5" stroke="#ffffff" fill="#ffffff"/>
  <rect id="svg_19" height="18.445318" width="3.952568" y="-2.219038" x="13.626477" stroke-width="1.5" stroke="#ffffff" fill="#ffffff"/>
  <rect id="svg_20" height="0.131752" width="0.395257" y="-5.512844" x="29.832007" stroke-width="1.5" stroke="#ffffff" fill="#ffffff"/>
 </g>
</svg>